<?xml version="1.0" encoding="UTF-8"?>
<svg version="1.1" xmlns="http://www.w3.org/2000/svg" width="500" height="500">
<path d="M0 0 C1.11508942 -0.0025882 2.23017883 -0.00517639 3.37905884 -0.00784302 C6.60430015 -0.01375065 9.8294452 -0.01209313 13.0546875 -0.0078125 C14.00884048 -0.00979141 14.96299347 -0.01177032 15.94606018 -0.0138092 C31.6128467 0.03939677 49.18531843 1.81372273 61.125 13.125 C68.71739237 21.94807941 70.22080734 30.57113392 69.44140625 41.98486328 C68.66374929 47.24484854 65.98463078 51.70789174 63.125 56.125 C62.465 56.125 61.805 56.125 61.125 56.125 C60.91875 56.7025 60.7125 57.28 60.5 57.875 C58.62749112 60.93910544 56.15541481 62.28039968 53.125 64.125 C53.80046875 64.57230469 54.4759375 65.01960938 55.171875 65.48046875 C64.33978924 71.69398288 64.33978924 71.69398288 67.125 76.125 C67.125 76.785 67.125 77.445 67.125 78.125 C67.785 78.125 68.445 78.125 69.125 78.125 C74.05703677 88.31934386 75.40859184 100.6907386 71.6875 111.5625 C68.99445412 117.18025162 64.80251078 122.04864818 60.125 126.125 C57.84375 126.90234375 57.84375 126.90234375 56.125 127.125 C56.125 127.785 56.125 128.445 56.125 129.125 C54.805 129.125 53.485 129.125 52.125 129.125 C52.125 129.785 52.125 130.445 52.125 131.125 C49.85711798 131.78302245 47.58651819 132.42630324 45.3125 133.0625 C44.04792969 133.42214844 42.78335938 133.78179687 41.48046875 134.15234375 C32.59790762 136.3484755 23.34650567 136.27520061 14.25 136.2578125 C13.13884827 136.25917709 12.02769653 136.26054169 10.88287354 136.26194763 C7.29688461 136.26396041 3.71098039 136.25768177 0.125 136.25 C-1.09964966 136.24878143 -2.32429932 136.24756287 -3.58605957 136.24630737 C-23.69762652 136.22281025 -43.77999893 135.95357117 -63.875 135.125 C-65.45112061 135.06094971 -65.45112061 135.06094971 -67.05908203 134.99560547 C-69.76908078 134.88102253 -72.47832651 134.75756632 -75.1875 134.625 C-75.91098633 134.58963135 -76.63447266 134.5542627 -77.37988281 134.51782227 C-81.27028659 134.29897508 -85.04452599 133.83764633 -88.875 133.125 C-88.875 132.795 -88.875 132.465 -88.875 132.125 C-68.085 131.135 -68.085 131.135 -46.875 130.125 C-67.665 128.64 -67.665 128.64 -88.875 127.125 C-88.875 126.795 -88.875 126.465 -88.875 126.125 C-87.83682129 126.06965088 -86.79864258 126.01430176 -85.72900391 125.95727539 C-81.83369436 125.74898576 -77.938555 125.53764578 -74.04345703 125.32543945 C-72.36576677 125.23445318 -70.68803293 125.14426622 -69.01025391 125.05493164 C-60.27504624 124.58929669 -51.57070844 124.10791613 -42.875 123.125 C-43.97956543 123.08741577 -43.97956543 123.08741577 -45.10644531 123.04907227 C-48.44613378 122.93295727 -51.78555097 122.81030082 -55.125 122.6875 C-56.28386719 122.64818359 -57.44273437 122.60886719 -58.63671875 122.56835938 C-59.75175781 122.52646484 -60.86679688 122.48457031 -62.015625 122.44140625 C-63.04204102 122.40474854 -64.06845703 122.36809082 -65.12597656 122.33032227 C-67.51110887 122.15217872 -69.58799499 121.79722637 -71.875 121.125 C-71.875 120.465 -71.875 119.805 -71.875 119.125 C-70.46190552 119.08741577 -70.46190552 119.08741577 -69.02026367 119.04907227 C-65.47346424 118.95305983 -61.92678063 118.85388952 -58.38012695 118.75268555 C-56.85477058 118.70978339 -55.32937981 118.66808432 -53.80395508 118.62768555 C-51.59185477 118.56888012 -49.37992073 118.50552463 -47.16796875 118.44140625 C-46.50290817 118.42469376 -45.8378476 118.40798126 -45.15263367 118.39076233 C-39.36986186 118.21596811 -33.63143607 117.69018068 -27.875 117.125 C-28.47777267 117.11469254 -29.08054535 117.10438507 -29.70158386 117.09376526 C-35.97962902 116.98551991 -42.25753589 116.87093676 -48.53540039 116.75268555 C-50.87781885 116.7093945 -53.22026768 116.66771531 -55.56274414 116.62768555 C-58.93124541 116.56984187 -62.29959464 116.50618781 -65.66796875 116.44140625 C-66.71397751 116.42469376 -67.75998627 116.40798126 -68.83769226 116.39076233 C-69.81833145 116.37081711 -70.79897064 116.35087189 -71.80932617 116.33032227 C-72.66870285 116.31477798 -73.52807953 116.2992337 -74.41349792 116.28321838 C-76.97424472 116.11862083 -79.37298318 115.68325937 -81.875 115.125 C-81.38 114.135 -81.38 114.135 -80.875 113.125 C-67.015 112.795 -53.155 112.465 -38.875 112.125 C-45.86163336 111.54278055 -52.71749638 110.97451118 -59.703125 110.80859375 C-60.8429483 110.7774221 -60.8429483 110.7774221 -62.00579834 110.74562073 C-64.37879463 110.68143232 -66.75187867 110.62186438 -69.125 110.5625 C-70.75651866 110.51918965 -72.38802919 110.47557196 -74.01953125 110.43164062 C-77.97126957 110.32589024 -81.92309396 110.22427648 -85.875 110.125 C-85.875 109.465 -85.875 108.805 -85.875 108.125 C-84.88282471 108.09994385 -83.89064941 108.0748877 -82.8684082 108.04907227 C-79.124013 107.95362134 -75.37974533 107.85375956 -71.63549805 107.75268555 C-70.02680481 107.7098491 -68.41808087 107.66814801 -66.80932617 107.62768555 C-57.13328846 107.38344776 -47.51849235 106.99720578 -37.875 106.125 C-39.07898438 106.06441406 -40.28296875 106.00382812 -41.5234375 105.94140625 C-43.09897077 105.85700268 -44.67449096 105.77235459 -46.25 105.6875 C-47.0440625 105.64818359 -47.838125 105.60886719 -48.65625 105.56835938 C-54.6484375 105.23828125 -54.6484375 105.23828125 -56.875 104.125 C-56.875 103.465 -56.875 102.805 -56.875 102.125 C-46.975 101.795 -37.075 101.465 -26.875 101.125 C-26.875 100.465 -26.875 99.805 -26.875 99.125 C-27.77742432 99.13023682 -28.67984863 99.13547363 -29.60961914 99.14086914 C-32.98478851 99.15799758 -36.3599111 99.17049212 -39.73510742 99.17993164 C-41.19084404 99.18493417 -42.64657571 99.1917383 -44.10229492 99.20043945 C-46.20492788 99.212685 -48.30749391 99.21826923 -50.41015625 99.22265625 C-51.672229 99.22789307 -52.93430176 99.23312988 -54.23461914 99.23852539 C-57.85171982 99.12572599 -61.30579551 98.70612682 -64.875 98.125 C-64.875 97.465 -64.875 96.805 -64.875 96.125 C-60.255 95.795 -55.635 95.465 -50.875 95.125 C-50.875 94.795 -50.875 94.465 -50.875 94.125 C-51.80771729 94.09994385 -52.74043457 94.0748877 -53.70141602 94.04907227 C-57.18849916 93.95347932 -60.67544188 93.85427541 -64.16235352 93.75268555 C-65.66654499 93.70958874 -67.17077748 93.66789793 -68.67504883 93.62768555 C-70.84729326 93.56936543 -73.01933602 93.50585516 -75.19140625 93.44140625 C-76.49537354 93.40474854 -77.79934082 93.36809082 -79.14282227 93.33032227 C-82.79251656 93.12953775 -86.26967558 92.69834248 -89.875 92.125 C-89.875 91.795 -89.875 91.465 -89.875 91.125 C-80.635 90.465 -71.395 89.805 -61.875 89.125 C-65.835 88.465 -69.795 87.805 -73.875 87.125 C-73.875 86.465 -73.875 85.805 -73.875 85.125 C-72.43217651 85.08741577 -72.43217651 85.08741577 -70.96020508 85.04907227 C-67.32762499 84.95356924 -63.69517417 84.85372201 -60.06274414 84.75268555 C-58.50255394 84.70986812 -56.94233265 84.66816653 -55.38208008 84.62768555 C-48.03918538 84.43650121 -40.72209995 84.24327973 -33.40234375 83.59765625 C-25.93507874 82.97152822 -18.48383868 82.9743525 -10.99560547 82.99462891 C-8.58685281 83.00008643 -6.17827897 82.99459832 -3.76953125 82.98828125 C-2.23697876 82.98894047 -0.70442637 82.99021839 0.828125 82.9921875 C1.90758392 82.98915115 1.90758392 82.98915115 3.0088501 82.98605347 C8.00998637 83.00998637 8.00998637 83.00998637 9.125 84.125 C9.21226223 85.90571246 9.23199041 87.6898314 9.22265625 89.47265625 C9.21782227 91.09204102 9.21782227 91.09204102 9.21289062 92.74414062 C9.20032227 94.44860352 9.20032227 94.44860352 9.1875 96.1875 C9.18298828 97.32767578 9.17847656 98.46785156 9.17382812 99.64257812 C9.16199747 102.47010351 9.1455141 105.2975264 9.125 108.125 C17.50021426 107.68917189 25.11698921 106.67665073 33.125 104.125 C33.125 103.465 33.125 102.805 33.125 102.125 C33.785 102.125 34.445 102.125 35.125 102.125 C35.95122671 96.51936958 36.19295656 91.70210648 35.125 86.125 C34.465 86.125 33.805 86.125 33.125 86.125 C33.125 85.465 33.125 84.805 33.125 84.125 C26.195 83.135 19.265 82.145 12.125 81.125 C12.125 71.885 12.125 62.645 12.125 53.125 C15.67317708 52.63671875 19.22135417 52.1484375 22.76953125 51.66015625 C26.10821703 51.22107545 26.10821703 51.22107545 29.125 50.125 C29.125 49.465 29.125 48.805 29.125 48.125 C29.785 48.125 30.445 48.125 31.125 48.125 C32.76256894 43.00759705 32.89697292 38.64035426 30.4375 33.8125 C27.16673139 30.01133648 24.51839821 29.28748648 19.57421875 28.7109375 C18.33285156 28.64132813 17.09148437 28.57171875 15.8125 28.5 C12.5021875 28.314375 12.5021875 28.314375 9.125 28.125 C9.125 35.715 9.125 43.305 9.125 51.125 C2.90328803 51.17139222 -3.3178024 51.21106892 -9.53955078 51.23486328 C-11.6476446 51.24480258 -13.75572509 51.2583587 -15.86376953 51.27587891 C-29.02409703 51.38236418 -41.83333347 50.95334807 -54.875 49.125 C-54.875 48.795 -54.875 48.465 -54.875 48.125 C-52.235 47.795 -49.595 47.465 -46.875 47.125 C-50.60920597 45.88026468 -54.14865238 45.89290215 -58.04296875 45.80859375 C-59.23518791 45.7774221 -59.23518791 45.7774221 -60.45149231 45.74562073 C-62.98840763 45.68027913 -65.52542573 45.62131192 -68.0625 45.5625 C-69.78321372 45.51930014 -71.50391708 45.47568537 -73.22460938 45.43164062 C-77.44130113 45.32461352 -81.6580962 45.22330276 -85.875 45.125 C-85.875 44.465 -85.875 43.805 -85.875 43.125 C-68.55 42.135 -68.55 42.135 -50.875 41.125 C-50.545 39.805 -50.215 38.485 -49.875 37.125 C-51.525 36.795 -53.175 36.465 -54.875 36.125 C-54.875 35.135 -54.875 34.145 -54.875 33.125 C-54.215 32.795 -53.555 32.465 -52.875 32.125 C-58.815 31.465 -64.755 30.805 -70.875 30.125 C-66.53561709 27.95530855 -64.39109592 27.91173896 -59.625 28 C-58.36171875 28.01804688 -57.0984375 28.03609375 -55.796875 28.0546875 C-54.83265625 28.07789063 -53.8684375 28.10109375 -52.875 28.125 C-52.875 27.465 -52.875 26.805 -52.875 26.125 C-63.765 25.795 -74.655 25.465 -85.875 25.125 C-86.205 24.465 -86.535 23.805 -86.875 23.125 C-73.51 22.135 -73.51 22.135 -59.875 21.125 C-65.815 20.135 -65.815 20.135 -71.875 19.125 C-71.875 18.795 -71.875 18.465 -71.875 18.125 C-59.5 17.135 -59.5 17.135 -46.875 16.125 C-67.17 15.63 -67.17 15.63 -87.875 15.125 C-88.205 14.465 -88.535 13.805 -88.875 13.125 C-86.35822887 11.86661443 -84.46206712 11.91681027 -81.6484375 11.80859375 C-80.1015625 11.74575195 -80.1015625 11.74575195 -78.5234375 11.68164062 C-77.44320312 11.64232422 -76.36296875 11.60300781 -75.25 11.5625 C-74.16203125 11.51931641 -73.0740625 11.47613281 -71.953125 11.43164062 C-69.2605483 11.3253547 -66.56787747 11.22331943 -63.875 11.125 C-66.515 10.465 -69.155 9.805 -71.875 9.125 C-71.875 8.465 -71.875 7.805 -71.875 7.125 C-62.305 6.795 -52.735 6.465 -42.875 6.125 C-42.875 5.795 -42.875 5.465 -42.875 5.125 C-51.125 4.795 -59.375 4.465 -67.875 4.125 C-67.875 3.465 -67.875 2.805 -67.875 2.125 C-60.61751332 1.04948205 -53.39100794 0.78189478 -46.0625 0.5625 C-45.37967957 0.54165344 -44.69685913 0.52080688 -43.99334717 0.49932861 C-29.33131798 0.06653352 -14.66750441 0.01582396 0 0 Z M-45.875 10.125 C-45.875 10.455 -45.875 10.785 -45.875 11.125 C-43.565 11.125 -41.255 11.125 -38.875 11.125 C-38.875 10.795 -38.875 10.465 -38.875 10.125 C-41.185 10.125 -43.495 10.125 -45.875 10.125 Z M-1.875 11.125 C-0.875 13.125 -0.875 13.125 -0.875 13.125 Z M-12.875 20.125 C-11.875 22.125 -11.875 22.125 -11.875 22.125 Z M-33.875 21.125 C-33.875 21.455 -33.875 21.785 -33.875 22.125 C-31.565 22.125 -29.255 22.125 -26.875 22.125 C-26.875 21.795 -26.875 21.465 -26.875 21.125 C-29.185 21.125 -31.495 21.125 -33.875 21.125 Z M-32.875 26.125 C-28.875 27.125 -28.875 27.125 -28.875 27.125 Z M-44.875 32.125 C-40.875 33.125 -40.875 33.125 -40.875 33.125 Z M-48.875 40.125 C-48.875 40.455 -48.875 40.785 -48.875 41.125 C-46.565 41.125 -44.255 41.125 -41.875 41.125 C-41.875 40.795 -41.875 40.465 -41.875 40.125 C-44.185 40.125 -46.495 40.125 -48.875 40.125 Z M-46.875 88.125 C-46.875 88.455 -46.875 88.785 -46.875 89.125 C-40.275 89.125 -33.675 89.125 -26.875 89.125 C-26.875 88.795 -26.875 88.465 -26.875 88.125 C-33.475 88.125 -40.075 88.125 -46.875 88.125 Z M-46.875 93.125 C-46.875 93.785 -46.875 94.445 -46.875 95.125 C-41.595 95.125 -36.315 95.125 -30.875 95.125 C-30.875 94.795 -30.875 94.465 -30.875 94.125 C-36.155 93.795 -41.435 93.465 -46.875 93.125 Z M-32.875 105.125 C-28.875 106.125 -28.875 106.125 -28.875 106.125 Z " fill="#F1F0F3" transform="translate(257.875,154.875)"/>
<path d="M0 0 C4.96622349 -0.02465098 9.93241166 -0.04283649 14.89868164 -0.05493164 C16.58944316 -0.0599719 18.28020029 -0.06680405 19.97094727 -0.07543945 C22.39600707 -0.08751857 24.82100944 -0.09323123 27.24609375 -0.09765625 C28.38672523 -0.10539818 28.38672523 -0.10539818 29.55039978 -0.11329651 C31.3673257 -0.11349238 33.18413127 -0.06197277 35 0 C36 1 36 1 36.11352539 3.59204102 C36.10567017 5.28091431 36.10567017 5.28091431 36.09765625 7.00390625 C36.09282227 8.82631836 36.09282227 8.82631836 36.08789062 10.68554688 C36.07532227 12.60463867 36.07532227 12.60463867 36.0625 14.5625 C36.05798828 15.84576172 36.05347656 17.12902344 36.04882812 18.45117188 C36.03699545 21.63416022 36.02051068 24.81705762 36 28 C15.43088836 28.25512685 -5.07180244 27.94069516 -25.625 27.0625 C-26.6768045 27.01893372 -27.72860901 26.97536743 -28.81228638 26.93048096 C-31.80484947 26.80473637 -34.79697236 26.67165144 -37.7890625 26.53515625 C-38.69266006 26.49655991 -39.59625763 26.45796356 -40.52723694 26.41819763 C-46.76743198 26.11628401 -46.76743198 26.11628401 -49 25 C-49 24.34 -49 23.68 -49 23 C-41.74 22.67 -34.48 22.34 -27 22 C-43.31872678 20.90162416 -59.65358467 20.46524528 -76 20 C-76 19.67 -76 19.34 -76 19 C-69.17347737 18.01413083 -62.38904442 17.68883475 -55.5 17.4375 C-54.39140625 17.39431641 -53.2828125 17.35113281 -52.140625 17.30664062 C-49.42719988 17.20137844 -46.71361428 17.10026719 -44 17 C-48.62 16.34 -53.24 15.68 -58 15 C-58 14.67 -58 14.34 -58 14 C-41.17 13.01 -41.17 13.01 -24 12 C-25.32 11.34 -26.64 10.68 -28 10 C-28 9.34 -28 8.68 -28 8 C-23.545 7.505 -23.545 7.505 -19 7 C-27.58 6.34 -36.16 5.68 -45 5 C-45 4.67 -45 4.34 -45 4 C-40.68109097 3.70967913 -36.36184723 3.42514353 -32.04223633 3.14550781 C-30.5789207 3.05001497 -29.11569972 2.95305833 -27.65258789 2.85449219 C-18.42027941 2.23372633 -9.25977415 1.85548851 0 2 C0 1.34 0 0.68 0 0 Z M27 5 C27 5.33 27 5.66 27 6 C28.65 6 30.3 6 32 6 C32 5.67 32 5.34 32 5 C30.35 5 28.7 5 27 5 Z " fill="#E2E0E5" transform="translate(231,208)"/>
<path d="M0 0 C1.22332031 -0.01417969 2.44664062 -0.02835937 3.70703125 -0.04296875 C7.0551092 0.17873338 9.23051502 0.65050601 12.1875 2.1875 C14.125 4.4375 14.125 4.4375 15.1875 7.1875 C14.375 10.5 14.375 10.5 13.1875 13.1875 C13.8475 13.8475 14.5075 14.5075 15.1875 15.1875 C15.48828125 17.24609375 15.48828125 17.24609375 15.5 19.625 C15.51675781 20.40746094 15.53351563 21.18992187 15.55078125 21.99609375 C15.10142045 24.70675408 14.34573513 25.53470635 12.1875 27.1875 C8.30186275 28.48271242 4.60949731 28.33253464 0.5625 28.3125 C-0.22640625 28.31636719 -1.0153125 28.32023437 -1.828125 28.32421875 C-7.68584606 28.31415394 -7.68584606 28.31415394 -8.8125 27.1875 C-8.89998207 25.26082493 -8.91947334 23.33098139 -8.91015625 21.40234375 C-8.90693359 20.23251953 -8.90371094 19.06269531 -8.90039062 17.85742188 C-8.89201172 16.62572266 -8.88363281 15.39402344 -8.875 14.125 C-8.87048828 12.88943359 -8.86597656 11.65386719 -8.86132812 10.38085938 C-8.84949608 7.31635883 -8.83301173 4.25195279 -8.8125 1.1875 C-5.88563088 -0.27593456 -3.25796387 0.0170574 0 0 Z M-0.8125 7.1875 C-1.1425 8.5075 -1.4725 9.8275 -1.8125 11.1875 C2.83802872 11.45682521 2.83802872 11.45682521 7.1875 10.1875 C7.1875 9.1975 7.1875 8.2075 7.1875 7.1875 C4.5475 7.1875 1.9075 7.1875 -0.8125 7.1875 Z M-0.8125 17.1875 C-1.1425 18.5075 -1.4725 19.8275 -1.8125 21.1875 C1.4875 21.1875 4.7875 21.1875 8.1875 21.1875 C7.8575 19.8675 7.5275 18.5475 7.1875 17.1875 C4.5475 17.1875 1.9075 17.1875 -0.8125 17.1875 Z " fill="#D5D3DA" transform="translate(175.8125,304.8125)"/>
<path d="M0 0 C6.77692859 -0.0255305 13.55384459 -0.0429421 20.33081055 -0.05493164 C22.63224755 -0.05993441 24.93368142 -0.06673872 27.23510742 -0.07543945 C30.55908995 -0.08768381 33.88303014 -0.09326903 37.20703125 -0.09765625 C38.2220723 -0.10281754 39.23711334 -0.10797882 40.28291321 -0.11329651 C58.32796947 -0.11468702 58.32796947 -0.11468702 63 3 C62.09121094 2.9278125 61.18242187 2.855625 60.24609375 2.78125 C44.01224346 0.54980906 44.01224346 0.54980906 29 4 C29 4.66 29 5.32 29 6 C28.34 6 27.68 6 27 6 C26.87625 6.78375 26.7525 7.5675 26.625 8.375 C26 11 26 11 24 13 C24.66 13.66 25.32 14.32 26 15 C25.0925 15.495 24.185 15.99 23.25 16.5 C19.27665704 19.09867928 17.76626074 22.71941514 16 27 C14.68 25.68 13.36 24.36 12 23 C12.33 22.01 12.66 21.02 13 20 C12.401875 19.95875 11.80375 19.9175 11.1875 19.875 C7.83938826 18.53575531 7.48518527 16.2559831 6 13 C4.43178497 10.40377769 2.82621939 7.83423071 1.20703125 5.26953125 C0 3 0 3 0 0 Z " fill="#D4D2D9" transform="translate(233,155)"/>
<path d="M0 0 C0.7528125 -0.00515625 1.505625 -0.0103125 2.28125 -0.015625 C4.82946266 0.28944271 6.3659562 0.82127576 8.5 2.25 C11.2844506 5.8575272 10.72469213 10.1595579 10.625 14.5 C10.61597656 15.24507813 10.60695313 15.99015625 10.59765625 16.7578125 C10.57418358 18.58868059 10.53831525 20.41938238 10.5 22.25 C7.91554227 22.3581866 5.33562648 22.43737237 2.75 22.5 C2.02039063 22.53351563 1.29078125 22.56703125 0.5390625 22.6015625 C-3.01299849 22.66614543 -5.07456295 22.55626141 -7.99609375 20.453125 C-9.5 18.25 -9.5 18.25 -9.8125 14.75 C-8.5 11.25 -8.5 11.25 -6.4140625 9.91015625 C-4.13514177 8.90009832 -1.86974768 8.02076642 0.5 7.25 C-1.81 7.58 -4.12 7.91 -6.5 8.25 C-7.16 6.27 -7.82 4.29 -8.5 2.25 C-5.54497399 0.55757601 -3.40004978 -0.02328801 0 0 Z M-2.5 14.25 C-2.17 15.24 -1.84 16.23 -1.5 17.25 C0.47536745 16.90213292 0.47536745 16.90213292 2.5 16.25 C2.83 15.59 3.16 14.93 3.5 14.25 C1.52 14.25 -0.46 14.25 -2.5 14.25 Z " fill="#DBD8E0" transform="translate(262.5,310.75)"/>
<path d="M0 0 C0.74121094 -0.02835937 1.48242188 -0.05671875 2.24609375 -0.0859375 C5.74071596 0.60945107 7.21002965 1.68528739 9.5625 4.375 C10.17073511 7.48124954 10.03495111 10.47519356 9.875 13.625 C9.85244141 14.46546875 9.82988281 15.3059375 9.80664062 16.171875 C9.74787714 18.24034964 9.65819885 20.30790488 9.5625 22.375 C7.1446288 22.48326289 4.73162444 22.56239789 2.3125 22.625 C1.28962891 22.67527344 1.28962891 22.67527344 0.24609375 22.7265625 C-3.21601831 22.79378798 -5.07961919 22.64070801 -7.89453125 20.55078125 C-9.96729619 17.62792031 -9.959912 15.88262342 -9.4375 12.375 C-7.9375 10.5 -7.9375 10.5 -6.4375 9.375 C-6.7675 8.776875 -7.0975 8.17875 -7.4375 7.5625 C-8.4375 5.375 -8.4375 5.375 -8.4375 2.375 C-5.53280297 0.72834636 -3.33835779 0.05785715 0 0 Z M-4.4375 7.375 C-4.4375 8.035 -4.4375 8.695 -4.4375 9.375 C-2.4575 9.045 -0.4775 8.715 1.5625 8.375 C1.2325 7.715 0.9025 7.055 0.5625 6.375 C-1.64831851 6.26959074 -1.64831851 6.26959074 -4.4375 7.375 Z M-2.4375 14.375 C-2.1075 15.365 -1.7775 16.355 -1.4375 17.375 C-0.4475 17.375 0.5425 17.375 1.5625 17.375 C1.5625 16.715 1.5625 16.055 1.5625 15.375 C2.2225 15.045 2.8825 14.715 3.5625 14.375 C1.5825 14.375 -0.3975 14.375 -2.4375 14.375 Z " fill="#D9D7DF" transform="translate(298.4375,310.625)"/>
<path d="M0 0 C0 0.33 0 0.66 0 1 C-7.92 1 -15.84 1 -24 1 C-23.505 2.485 -23.505 2.485 -23 4 C-15.41 4 -7.82 4 0 4 C0 4.66 0 5.32 0 6 C-3.96 5.67 -7.92 5.34 -12 5 C-12 5.66 -12 6.32 -12 7 C-12.66 7 -13.32 7 -14 7 C-14 7.66 -14 8.32 -14 9 C-9.38 9 -4.76 9 0 9 C0 9.33 0 9.66 0 10 C-11.17587598 10.13464911 -22.32920678 9.92546985 -33.5 9.5625 C-34.79446045 9.52326416 -36.0889209 9.48402832 -37.42260742 9.44360352 C-38.63408447 9.40162842 -39.84556152 9.35965332 -41.09375 9.31640625 C-42.18365234 9.27974854 -43.27355469 9.24309082 -44.39648438 9.20532227 C-47 9 -47 9 -49 8 C-49 7.34 -49 6.68 -49 6 C-41.74 5.67 -34.48 5.34 -27 5 C-43.31872678 3.90162416 -59.65358467 3.46524528 -76 3 C-76 2.67 -76 2.34 -76 2 C-70.08103701 1.18852927 -64.21792497 0.69607469 -58.25 0.4375 C-57.27224609 0.3950415 -56.29449219 0.35258301 -55.28710938 0.30883789 C-36.87397803 -0.36763508 -18.42199087 -0.07991387 0 0 Z " fill="#B2AAC0" transform="translate(231,225)"/>
<path d="M0 0 C0.86625 -0.00515625 1.7325 -0.0103125 2.625 -0.015625 C5 0.25 5 0.25 8 2.25 C7.34 4.23 6.68 6.21 6 8.25 C5.01 8.25 4.02 8.25 3 8.25 C3.804375 8.641875 4.60875 9.03375 5.4375 9.4375 C8 11.25 8 11.25 9 13.625 C9 17.01825502 8.06582795 18.59393549 6 21.25 C3.05173237 22.23275588 1.07347496 22.38414725 -2 22.375 C-3.299375 22.37886719 -3.299375 22.37886719 -4.625 22.3828125 C-7 22.25 -7 22.25 -10 21.25 C-10.042721 19.58388095 -10.04063832 17.91617115 -10 16.25 C-9.67 15.92 -9.34 15.59 -9 15.25 C-7.30858344 15.33963062 -5.62040398 15.49577676 -3.9375 15.6875 C-3.01839844 15.78933594 -2.09929687 15.89117187 -1.15234375 15.99609375 C-0.44207031 16.07988281 0.26820313 16.16367187 1 16.25 C1 15.59 1 14.93 1 14.25 C-0.60875 14.37375 -0.60875 14.37375 -2.25 14.5 C-6 14.25 -6 14.25 -8.4375 12.625 C-10.39644605 9.647402 -10.31785906 7.74644963 -10 4.25 C-9.34 4.25 -8.68 4.25 -8 4.25 C-8 3.59 -8 2.93 -8 2.25 C-4.76085771 0.09057181 -3.75140267 -0.02232978 0 0 Z " fill="#D5D1DA" transform="translate(241,310.75)"/>
<path d="M0 0 C2.31 0 4.62 0 7 0 C7 1.65 7 3.3 7 5 C8.32 5 9.64 5 11 5 C11 6.98 11 8.96 11 11 C9.68 11 8.36 11 7 11 C7.33 13.64 7.66 16.28 8 19 C9.32 19.33 10.64 19.66 12 20 C12.33 21.65 12.66 23.3 13 25 C9.98131566 26.50934217 7.32702771 26.17510672 4 26 C1 24 1 24 0 21 C-0.06802967 19.27204648 -0.08495645 17.54164635 -0.0625 15.8125 C-0.05347656 14.91144531 -0.04445313 14.01039063 -0.03515625 13.08203125 C-0.02355469 12.39496094 -0.01195312 11.70789063 0 11 C-0.99 11 -1.98 11 -3 11 C-3 9.02 -3 7.04 -3 5 C-2.01 5 -1.02 5 0 5 C0 3.35 0 1.7 0 0 Z " fill="#D9D6DF" transform="translate(316,307)"/>
<path d="M0 0 C2.31 0 4.62 0 7 0 C7 9.57 7 19.14 7 29 C4.69 29 2.38 29 0 29 C-2.24247049 19.67417033 -1.32281669 9.42506889 0 0 Z " fill="#DCDAE0" transform="translate(208,304)"/>
<path d="M0 0 C1.2375 0.1546875 1.2375 0.1546875 2.5 0.3125 C4.5 3.3125 4.5 3.3125 4.5 6.3125 C3.84 6.3125 3.18 6.3125 2.5 6.3125 C2.66242188 7.11042969 2.82484375 7.90835937 2.9921875 8.73046875 C3.60589817 13.0594894 3.64600244 17.25999323 3.625 21.625 C3.62886719 22.44806641 3.63273438 23.27113281 3.63671875 24.11914062 C3.62671604 30.18578396 3.62671604 30.18578396 2.5 31.3125 C0.50041636 31.35330783 -1.50045254 31.35504356 -3.5 31.3125 C-4.48239876 28.36530372 -4.55028354 26.88224261 -4.34375 23.85546875 C-4.29089844 22.98986328 -4.23804688 22.12425781 -4.18359375 21.23242188 C-4.06198176 19.4224732 -3.93959607 17.61257634 -3.81640625 15.80273438 C-3.58290935 11.96142555 -3.4489928 8.61418072 -4.09375 4.80078125 C-4.2278125 3.97964844 -4.361875 3.15851563 -4.5 2.3125 C-2.5 0.3125 -2.5 0.3125 0 0 Z " fill="#DEDBDF" transform="translate(199.5,301.6875)"/>
<path d="M0 0 C2.31 0 4.62 0 7 0 C7.19800942 3.70784992 7.38153245 7.41628235 7.5625 11.125 C7.61857422 12.17171875 7.67464844 13.2184375 7.73242188 14.296875 C7.97221468 19.34851007 8.16052 24.03125509 7 29 C4.69 29 2.38 29 0 29 C0 19.43 0 9.86 0 0 Z " fill="#D6D3DA" transform="translate(220,304)"/>
<path d="M0 0 C2.31 0 4.62 0 7 0 C7 9.57 7 19.14 7 29 C4.69 29 2.38 29 0 29 C0 19.43 0 9.86 0 0 Z " fill="#D0CDD6" transform="translate(278,304)"/>
<path d="M0 0 C4.95 0 9.9 0 15 0 C15 0.66 15 1.32 15 2 C14.01 2.99 13.02 3.98 12 5 C22.89 5.495 22.89 5.495 34 6 C34 6.33 34 6.66 34 7 C32.02 7.33 30.04 7.66 28 8 C28 8.33 28 8.66 28 9 C20.63959083 9.79725902 13.40239645 10.12886183 6 10 C6 9.67 6 9.34 6 9 C7.98 9 9.96 9 12 9 C12 8.34 12 7.68 12 7 C1.11 6.67 -9.78 6.34 -21 6 C-21.33 5.34 -21.66 4.68 -22 4 C-8.635 3.01 -8.635 3.01 5 2 C2.525 1.505 2.525 1.505 0 1 C0 0.67 0 0.34 0 0 Z " fill="#AFAABD" transform="translate(193,174)"/>
<path d="M0 0 C8.40215965 -0.11039334 16.64736824 0.04541351 25 1 C25 1.33 25 1.66 25 2 C22.69 2.33 20.38 2.66 18 3 C18 3.33 18 3.66 18 4 C21.3 4.33 24.6 4.66 28 5 C27.67 5.66 27.34 6.32 27 7 C22.71 7 18.42 7 14 7 C14 7.66 14 8.32 14 9 C14.99 9.33 15.98 9.66 17 10 C17.66 10.33 18.32 10.66 19 11 C19 11.66 19 12.32 19 13 C7.78 13 -3.44 13 -15 13 C-15 12.67 -15 12.34 -15 12 C-7.41 11.67 0.18 11.34 8 11 C8.33 9.68 8.66 8.36 9 7 C6.525 6.505 6.525 6.505 4 6 C4 5.01 4 4.02 4 3 C4.66 2.67 5.32 2.34 6 2 C3.03 1.505 3.03 1.505 0 1 C0 0.67 0 0.34 0 0 Z " fill="#838095" transform="translate(199,185)"/>
<path d="M0 0 C4.45821166 -0.08674429 8.91620804 -0.14030513 13.375 -0.1875 C14.64601562 -0.21263672 15.91703125 -0.23777344 17.2265625 -0.26367188 C19.04414063 -0.27817383 19.04414063 -0.27817383 20.8984375 -0.29296875 C22.01911621 -0.3086792 23.13979492 -0.32438965 24.29443359 -0.34057617 C25.18727051 -0.22818604 26.08010742 -0.1157959 27 0 C27.66 0.99 28.32 1.98 29 3 C26.36 2.67 23.72 2.34 21 2 C21 2.66 21 3.32 21 4 C17.91217022 5.79457676 15.69571565 6.24576692 12.13964844 6.22705078 C11.17895447 6.22689972 10.2182605 6.22674866 9.22845459 6.22659302 C8.19915833 6.21627045 7.16986206 6.20594788 6.109375 6.1953125 C5.04962463 6.1924826 3.98987427 6.18965271 2.89801025 6.18673706 C-0.48477497 6.17554734 -3.86729487 6.1504447 -7.25 6.125 C-9.54426701 6.11496865 -11.83853817 6.10584307 -14.1328125 6.09765625 C-19.75529877 6.07561196 -25.37763043 6.04214627 -31 6 C-31 5.34 -31 4.68 -31 4 C-30.00782471 3.97494385 -29.01564941 3.9498877 -27.9934082 3.92407227 C-24.249013 3.82862134 -20.50474533 3.72875956 -16.76049805 3.62768555 C-15.15180481 3.5848491 -13.54308087 3.54314801 -11.93432617 3.50268555 C-2.25396731 3.25833869 7.34965292 2.83763042 17 2 C11.39 1.67 5.78 1.34 0 1 C0 0.67 0 0.34 0 0 Z " fill="#C1BBCA" transform="translate(203,259)"/>
<path d="M0 0 C0.495 0.99 0.495 0.99 1 2 C-4.94 2.33 -10.88 2.66 -17 3 C-14.03 3.495 -14.03 3.495 -11 4 C-11 4.33 -11 4.66 -11 5 C-17.93 5 -24.86 5 -32 5 C-32 4.67 -32 4.34 -32 4 C-37.94 3.01 -37.94 3.01 -44 2 C-44 1.34 -44 0.68 -44 0 C-39.34124223 -0.16931862 -34.6822877 -0.32967117 -30.02294922 -0.48217773 C-28.44213828 -0.53512895 -26.86140352 -0.59041318 -25.28076172 -0.64819336 C-5.32826994 -1.37385324 -5.32826994 -1.37385324 0 0 Z " fill="#D9D5E0" transform="translate(228,240)"/>
<path d="M0 0 C0 0.33 0 0.66 0 1 C-7.92 1 -15.84 1 -24 1 C-24 1.66 -24 2.32 -24 3 C-41.16 3 -58.32 3 -76 3 C-76 2.67 -76 2.34 -76 2 C-70.08103701 1.18852927 -64.21792497 0.69607469 -58.25 0.4375 C-57.27224609 0.3950415 -56.29449219 0.35258301 -55.28710938 0.30883789 C-36.87397803 -0.36763508 -18.42199087 -0.07991387 0 0 Z " fill="#B7B1C5" transform="translate(231,225)"/>
<path d="M0 0 C0 0.66 0 1.32 0 2 C5.94 2.33 11.88 2.66 18 3 C18 3.33 18 3.66 18 4 C-16.85684003 4.18999535 -16.85684003 4.18999535 -28.3125 3.5625 C-29.03155518 3.52326416 -29.75061035 3.48402832 -30.49145508 3.44360352 C-34.37968047 3.19592465 -38.16935118 2.70673986 -42 2 C-42 1.67 -42 1.34 -42 1 C-27.99358774 0.36511019 -14.0220641 -0.17358814 0 0 Z " fill="#AFA8BE" transform="translate(211,286)"/>
<path d="M0 0 C0.96550781 0.00451172 1.93101562 0.00902344 2.92578125 0.01367188 C5.28392089 0.02534583 7.64192602 0.04171979 10 0.0625 C9.01 0.5575 9.01 0.5575 8 1.0625 C8 1.7225 8 2.3825 8 3.0625 C11.3 3.0625 14.6 3.0625 18 3.0625 C13.25373134 6.62220149 13.25373134 6.62220149 9 6.0625 C8.34 5.4025 7.68 4.7425 7 4.0625 C4.28384136 3.69042646 4.28384136 3.69042646 1.1171875 3.6484375 C-0.04941406 3.60976562 -1.21601563 3.57109375 -2.41796875 3.53125 C-3.64128906 3.5003125 -4.86460937 3.469375 -6.125 3.4375 C-7.35605469 3.39882812 -8.58710938 3.36015625 -9.85546875 3.3203125 C-12.90349376 3.2258001 -15.95150862 3.14024506 -19 3.0625 C-19 2.4025 -19 1.7425 -19 1.0625 C-12.62542652 0.10781742 -6.43938347 -0.0577324 0 0 Z " fill="#BCB6CB" transform="translate(209,155.9375)"/>
<path d="M0 0 C12.54 0 25.08 0 38 0 C37.34 0.33 36.68 0.66 36 1 C36 1.66 36 2.32 36 3 C42.27 3 48.54 3 55 3 C55 3.33 55 3.66 55 4 C50.85591735 4.28788454 46.7116322 4.57259951 42.56713867 4.85449219 C41.15985362 4.9506451 39.75262548 5.04763511 38.34545898 5.14550781 C36.31248453 5.28675666 34.27931839 5.42490504 32.24609375 5.5625 C31.02591553 5.64628906 29.8057373 5.73007813 28.54858398 5.81640625 C25.02527097 5.99869255 21.52732156 6.03165291 18 6 C18 5.34 18 4.68 18 4 C22.62 3.67 27.24 3.34 32 3 C32 2.67 32 2.34 32 2 C21.44 1.67 10.88 1.34 0 1 C0 0.67 0 0.34 0 0 Z " fill="#767191" transform="translate(175,247)"/>
<path d="M0 0 C2.5625718 -0.02710123 5.12485365 -0.04688771 7.6875 -0.0625 C8.40873047 -0.07087891 9.12996094 -0.07925781 9.87304688 -0.08789062 C13.71555382 -0.10543632 17.26639526 0.06475779 21 1 C19.68 2.32 18.36 3.64 17 5 C18.32 5.33 19.64 5.66 21 6 C18.16644901 5.85771699 15.33321213 5.71126584 12.5 5.5625 C11.70851562 5.52318359 10.91703125 5.48386719 10.1015625 5.44335938 C5.02614559 5.17294782 0.03624555 4.6872858 -5 4 C-5 3.67 -5 3.34 -5 3 C-2.36 2.67 0.28 2.34 3 2 C2.01 1.34 1.02 0.68 0 0 Z " fill="#A8A5B6" transform="translate(208,200)"/>
<path d="M0 0 C0 0.33 0 0.66 0 1 C2.64 1.33 5.28 1.66 8 2 C8 2.33 8 2.66 8 3 C3.12532925 3.02481234 -1.74930432 3.0429131 -6.62402344 3.05493164 C-8.28060548 3.05994473 -9.93718313 3.06675689 -11.59375 3.07543945 C-13.98178189 3.08763793 -16.36975502 3.09325867 -18.7578125 3.09765625 C-19.85973434 3.10539818 -19.85973434 3.10539818 -20.98391724 3.11329651 C-25.09778822 3.11374023 -28.96450609 2.80210299 -33 2 C-33 1.67 -33 1.34 -33 1 C-22.01480208 -0.27364614 -11.04098375 -0.10085216 0 0 Z " fill="#A5A0B4" transform="translate(206,221)"/>
<path d="M0 0 C8.40215965 -0.11039334 16.64736824 0.04541351 25 1 C25 1.33 25 1.66 25 2 C22.69 2.33 20.38 2.66 18 3 C18 3.33 18 3.66 18 4 C21.3 4.33 24.6 4.66 28 5 C28 5.33 28 5.66 28 6 C11.1070615 6.18451025 11.1070615 6.18451025 4 5 C4 4.34 4 3.68 4 3 C4.66 2.67 5.32 2.34 6 2 C3.03 1.505 3.03 1.505 0 1 C0 0.67 0 0.34 0 0 Z " fill="#DBDAE4" transform="translate(199,185)"/>
<path d="M0 0 C0.33 0.66 0.66 1.32 1 2 C3.32156597 2.40729228 5.6568787 2.74438677 8 3 C8 3.33 8 3.66 8 4 C-2.56 4 -13.12 4 -24 4 C-24.33 3.34 -24.66 2.68 -25 2 C-22.48322887 0.74161443 -20.58706712 0.79181027 -17.7734375 0.68359375 C-16.2265625 0.62075195 -16.2265625 0.62075195 -14.6484375 0.55664062 C-13.56820312 0.51732422 -12.48796875 0.47800781 -11.375 0.4375 C-10.28703125 0.39431641 -9.1990625 0.35113281 -8.078125 0.30664062 C-5.3855483 0.2003547 -2.69287747 0.09831943 0 0 Z " fill="#7F7797" transform="translate(194,166)"/>
<path d="M0 0 C10.23 0 20.46 0 31 0 C31 0.33 31 0.66 31 1 C29.02 1.33 27.04 1.66 25 2 C25 2.33 25 2.66 25 3 C17.63959083 3.79725902 10.40239645 4.12886183 3 4 C3 3.67 3 3.34 3 3 C4.98 3 6.96 3 9 3 C9 2.34 9 1.68 9 1 C6.03 1 3.06 1 0 1 C0 0.67 0 0.34 0 0 Z " fill="#5D5979" transform="translate(196,180)"/>
<path d="M0 0 C6.6 0 13.2 0 20 0 C20 0.99 20 1.98 20 3 C10.595 3.495 10.595 3.495 1 4 C0.67 2.68 0.34 1.36 0 0 Z " fill="#FCFBFE" transform="translate(207,226)"/>
<path d="M0 0 C1.2375 0.1546875 1.2375 0.1546875 2.5 0.3125 C4.5 3.3125 4.5 3.3125 4.5 6.3125 C3.84 6.3125 3.18 6.3125 2.5 6.3125 C2.5 7.6325 2.5 8.9525 2.5 10.3125 C0.52 10.3125 -1.46 10.3125 -3.5 10.3125 C-4.4765625 4.2578125 -4.4765625 4.2578125 -4.5 2.3125 C-2.5 0.3125 -2.5 0.3125 0 0 Z " fill="#BEBAC7" transform="translate(199.5,301.6875)"/>
<path d="M0 0 C3.31248187 -0.02888146 6.62493167 -0.04675799 9.9375 -0.0625 C10.88302734 -0.07087891 11.82855469 -0.07925781 12.80273438 -0.08789062 C14.15141602 -0.09272461 14.15141602 -0.09272461 15.52734375 -0.09765625 C16.77632446 -0.10551147 16.77632446 -0.10551147 18.05053711 -0.11352539 C20 0 20 0 21 1 C22.70772358 1.08713831 24.41898649 1.10700007 26.12890625 1.09765625 C27.16337891 1.09443359 28.19785156 1.09121094 29.26367188 1.08789062 C30.35228516 1.07951172 31.44089844 1.07113281 32.5625 1.0625 C33.65498047 1.05798828 34.74746094 1.05347656 35.87304688 1.04882812 C38.58208495 1.03699826 41.29101599 1.02051543 44 1 C44 1.66 44 2.32 44 3 C35.42 3 26.84 3 18 3 C18 2.34 18 1.68 18 1 C12.06 1 6.12 1 0 1 C0 0.67 0 0.34 0 0 Z " fill="#7E7C8A" transform="translate(187,228)"/>
<path d="M0 0 C2.31 0.33 4.62 0.66 7 1 C5 3 5 3 3.12704468 3.24050903 C1.98787094 3.2338472 1.98787094 3.2338472 0.82568359 3.22705078 C-0.46542831 3.22682419 -0.46542831 3.22682419 -1.78262329 3.22659302 C-2.71287323 3.21627045 -3.64312317 3.20594788 -4.6015625 3.1953125 C-5.55316254 3.1924826 -6.50476257 3.18965271 -7.48519897 3.18673706 C-10.53192592 3.17551989 -13.57836154 3.15041263 -16.625 3.125 C-18.68749576 3.11497218 -20.74999612 3.10584599 -22.8125 3.09765625 C-27.87511267 3.07557554 -32.9375069 3.0410353 -38 3 C-38 2.67 -38 2.34 -38 2 C-25.46 2 -12.92 2 0 2 C0 1.34 0 0.68 0 0 Z " fill="#FEFAFE" transform="translate(220,267)"/>
<path d="M0 0 C9.55650317 -0.20166126 18.63914824 -0.26439611 28 2 C28 2.33 28 2.66 28 3 C21.07 3 14.14 3 7 3 C7 2.67 7 2.34 7 2 C4.69 1.67 2.38 1.34 0 1 C0 0.67 0 0.34 0 0 Z " fill="#686074" transform="translate(189,242)"/>
<path d="M0 0 C7.59 0.33 15.18 0.66 23 1 C23 1.33 23 1.66 23 2 C18.71 2 14.42 2 10 2 C10 2.66 10 3.32 10 4 C10.99 4.33 11.98 4.66 13 5 C10.36 5 7.72 5 5 5 C4.67 5.66 4.34 6.32 4 7 C4.33 5.35 4.66 3.7 5 2 C3.35 1.67 1.7 1.34 0 1 C0 0.67 0 0.34 0 0 Z " fill="#8B89A6" transform="translate(203,190)"/>
<path d="M0 0 C1.40185547 0.00966797 1.40185547 0.00966797 2.83203125 0.01953125 C4.28416016 0.04466797 4.28416016 0.04466797 5.765625 0.0703125 C6.74917969 0.07933594 7.73273438 0.08835938 8.74609375 0.09765625 C11.16951907 0.12118465 13.59244722 0.15405882 16.015625 0.1953125 C16.015625 0.8553125 16.015625 1.5153125 16.015625 2.1953125 C12.78700767 2.39320274 9.55772773 2.57677595 6.328125 2.7578125 C5.41611328 2.81388672 4.50410156 2.86996094 3.56445312 2.92773438 C2.23510742 3.00024414 2.23510742 3.00024414 0.87890625 3.07421875 C0.06719971 3.1213501 -0.74450684 3.16848145 -1.58081055 3.21704102 C-4.1633235 3.19369478 -6.47287409 2.7757917 -8.984375 2.1953125 C-5.85508322 0.36461347 -3.60794354 -0.04399931 0 0 Z " fill="#DED9EA" transform="translate(195.984375,182.8046875)"/>
<path d="M0 0 C-0.33 0.99 -0.66 1.98 -1 3 C-7.44070471 3.10655578 -13.62641289 2.96205088 -20 2 C-20 1.67 -20 1.34 -20 1 C-13.31184516 0.37577221 -6.71884955 -0.12920865 0 0 Z " fill="#FDF8FE" transform="translate(224,211)"/>
<path d="M0 0 C8.40215965 -0.11039334 16.64736824 0.04541351 25 1 C25 1.33 25 1.66 25 2 C21.7 2.33 18.4 2.66 15 3 C15 3.33 15 3.66 15 4 C13.02 4 11.04 4 9 4 C9.33 3.34 9.66 2.68 10 2 C6.7 1.67 3.4 1.34 0 1 C0 0.67 0 0.34 0 0 Z " fill="#786C83" transform="translate(199,185)"/>
<path d="M0 0 C6.93 0.495 6.93 0.495 14 1 C14 1.66 14 2.32 14 3 C10.37 3.33 6.74 3.66 3 4 C3 3.34 3 2.68 3 2 C2.01 2 1.02 2 0 2 C0 1.34 0 0.68 0 0 Z " fill="#FAFBFD" transform="translate(213,192)"/>
<path d="M0 0 C1.98 0 3.96 0 6 0 C6.33 1.32 6.66 2.64 7 4 C4.03 4 1.06 4 -2 4 C-2 3.34 -2 2.68 -2 2 C-1.34 2 -0.68 2 0 2 C0 1.34 0 0.68 0 0 Z " fill="#FDFCFE" transform="translate(219,230)"/>
<path d="M0 0 C-0.99 1.485 -0.99 1.485 -2 3 C-4.80435411 3.05632424 -7.35146678 2.95814702 -10.125 2.6875 C-10.87910156 2.62626953 -11.63320312 2.56503906 -12.41015625 2.50195312 C-14.27463438 2.3485467 -16.13752498 2.17606541 -18 2 C-18 1.67 -18 1.34 -18 1 C-15.93769732 0.8309093 -13.8751477 0.66482867 -11.8125 0.5 C-10.08966797 0.36078125 -10.08966797 0.36078125 -8.33203125 0.21875 C-5.53927574 0.0354038 -2.79680188 -0.04213637 0 0 Z " fill="#C9C3D7" transform="translate(221,202)"/>
<path d="M0 0 C3.63 0 7.26 0 11 0 C7 3 7 3 4.375 3.375 C3.199375 3.189375 3.199375 3.189375 2 3 C1.34 2.01 0.68 1.02 0 0 Z " fill="#716F77" transform="translate(216,159)"/>
<path d="M0 0 C1.32 0 2.64 0 4 0 C4 0.99 4 1.98 4 3 C0.37 3 -3.26 3 -7 3 C-7 2.67 -7 2.34 -7 2 C-3.535 1.505 -3.535 1.505 0 1 C0 0.67 0 0.34 0 0 Z " fill="#807B8B" transform="translate(206,181)"/>
<path d="M0 0 C1.32 0.33 2.64 0.66 4 1 C3.01 1.495 3.01 1.495 2 2 C2 2.66 2 3.32 2 4 C3.65 4 5.3 4 7 4 C6.01 4.66 5.02 5.32 4 6 C3.01 5.67 2.02 5.34 1 5 C0.67 3.35 0.34 1.7 0 0 Z " fill="#908CAC" transform="translate(254,313)"/>
<path d="M0 0 C0.6875 1.6875 0.6875 1.6875 1 4 C-0.3125 6.75 -0.3125 6.75 -2 9 C-2.66 9 -3.32 9 -4 9 C-4 8.34 -4 7.68 -4 7 C-3.34 7 -2.68 7 -2 7 C-1.855625 6.21625 -1.71125 5.4325 -1.5625 4.625 C-1 2 -1 2 0 0 Z " fill="#C9C0D1" transform="translate(328,263)"/>
<path d="M0 0 C0.66 0 1.32 0 2 0 C2 2.31 2 4.62 2 7 C0.68 6.67 -0.64 6.34 -2 6 C-1.34 4.02 -0.68 2.04 0 0 Z " fill="#BCBCC3" transform="translate(229,186)"/>
<path d="M0 0 C0.33 0.99 0.66 1.98 1 3 C1.66 3 2.32 3 3 3 C3.33 2.34 3.66 1.68 4 1 C4 2.32 4 3.64 4 5 C3.34 5.66 2.68 6.32 2 7 C0.4375 4.625 0.4375 4.625 -1 2 C-0.67 1.34 -0.34 0.68 0 0 Z " fill="#7D7C92" transform="translate(246,175)"/>
</svg>
